<svg width="17" height="17" viewBox="0 0 17 17" fill="none" xmlns="http://www.w3.org/2000/svg">
<g clip-path="url(#clip0_268_2875)">
<path fill-rule="evenodd" clip-rule="evenodd" d="M8.4999 5.07128C8.4999 5.07128 6.59443 2.2131 2.78352 1.71599C2.15763 1.63435 1.64275 2.15439 1.64275 2.78557V10.7856C1.64275 11.4168 2.15763 11.9201 2.78352 12.0018C6.59443 12.4988 8.4999 15.357 8.4999 15.357C8.4999 15.357 10.4054 12.4988 14.2162 12.0018C14.8422 11.9201 15.357 11.4168 15.357 10.7856V2.78557C15.357 2.15439 14.8422 1.63435 14.2162 1.71599C10.4054 2.2131 8.4999 5.07128 8.4999 5.07128Z" fill="#FFD700"/>
<path fill-rule="evenodd" clip-rule="evenodd" d="M2.69113 2.4244C2.60881 2.41366 2.53564 2.43882 2.47313 2.49884C2.40651 2.5628 2.35704 2.6645 2.35704 2.78569V10.7857C2.35704 11.0014 2.54654 11.2506 2.87591 11.2935C4.94518 11.5635 6.49483 12.4748 7.52214 13.3123C7.61402 13.3871 7.70185 13.4615 7.78561 13.535V5.30654C7.73824 5.24606 7.67705 5.17077 7.60209 5.08399C7.38623 4.8341 7.05838 4.49161 6.61947 4.13381C5.74131 3.41791 4.43278 2.65159 2.69113 2.4244ZM9.21418 5.30654V13.535C9.29794 13.4615 9.38577 13.3871 9.47766 13.3123C10.505 12.4748 12.0546 11.5635 14.1239 11.2935C14.4533 11.2506 14.6428 11.0014 14.6428 10.7857V2.78569C14.6428 2.6645 14.5933 2.5628 14.5266 2.49884C14.4641 2.43882 14.391 2.41366 14.3087 2.4244C12.567 2.65159 11.2585 3.41791 10.3803 4.13381C9.94142 4.49161 9.61356 4.8341 9.3977 5.08399C9.32274 5.17077 9.26155 5.24606 9.21418 5.30654ZM9.08779 15.7628C9.08996 15.7597 9.09211 15.7565 9.09424 15.7533L9.10546 15.7373C9.11643 15.7218 9.13459 15.6965 9.15994 15.6628C9.21067 15.5955 9.28995 15.4944 9.3977 15.3696C9.61356 15.1198 9.94142 14.7773 10.3803 14.4195C11.2585 13.7036 12.567 12.9373 14.3087 12.7101C15.2311 12.5898 16.0713 11.8324 16.0713 10.7857V2.78569C16.0713 1.78882 15.2398 0.862268 14.1239 1.00783C12.0546 1.27775 10.505 2.18907 9.47766 3.02655C9.07306 3.35639 8.7473 3.67645 8.4999 3.94484C8.25249 3.67645 7.92673 3.35639 7.52214 3.02655C6.49483 2.18907 4.94518 1.27775 2.87591 1.00783C1.76003 0.862268 0.928467 1.78882 0.928467 2.78569V10.7857C0.928467 11.8324 1.76873 12.5898 2.69113 12.7101C4.43278 12.9373 5.74131 13.7036 6.61947 14.4195C7.05838 14.7773 7.38623 15.1198 7.60209 15.3696C7.70984 15.4944 7.78912 15.5955 7.83985 15.6628C7.8652 15.6965 7.88336 15.7218 7.89433 15.7373L7.90537 15.7531C7.9075 15.7563 7.90983 15.7597 7.912 15.7628C7.95743 15.8286 8.01251 15.8851 8.07438 15.9309C8.13617 15.9767 8.20606 16.0131 8.28222 16.0374C8.28577 16.0386 8.28934 16.0397 8.2929 16.0407C8.42466 16.0806 8.56833 16.0827 8.70689 16.0407C8.71046 16.0397 8.71402 16.0386 8.71758 16.0374C8.79374 16.0131 8.86362 15.9767 8.92542 15.9309C8.98728 15.8851 9.04236 15.8286 9.08779 15.7628Z" fill="#1E1E1E"/>
</g>
<defs>
<clipPath id="clip0_268_2875">
<rect width="16" height="16" fill="white" transform="translate(0.5 0.5)"/>
</clipPath>
</defs>
</svg>
