<svg width="14" height="14" viewBox="0 0 14 14" fill="none" xmlns="http://www.w3.org/2000/svg">
<path d="M4.5211 2.72999C4.47755 2.77426 4.44449 2.82762 4.41688 2.88612L4.41377 2.88295L0.0521314 12.8693L0.056409 12.8737C-0.0244773 13.033 0.110852 13.3571 0.388121 13.6393C0.66539 13.9211 0.984268 14.0586 1.14099 13.9764L1.14487 13.9804L10.9702 9.54686L10.9671 9.5433C11.0243 9.51563 11.0768 9.48204 11.1207 9.43698C11.7281 8.8196 10.7431 6.81766 8.92124 4.96552C7.09857 3.11338 5.12891 2.11261 4.5211 2.72999Z" fill="#DD2E44"/>
<path d="M5.05542 4.51332L0.161795 12.6183L0.0521314 12.8693L0.056409 12.8737C-0.0244773 13.033 0.110852 13.3571 0.388121 13.6393C0.47834 13.731 0.572059 13.8005 0.663834 13.8594L6.61092 6.48957L5.05542 4.51332Z" fill="#EA596E"/>
<path d="M8.94881 4.93472C10.7649 6.78132 11.7732 8.74966 11.2 9.33147C10.6272 9.91407 8.6906 8.88958 6.87338 7.04377C5.05694 5.19716 4.04897 3.22803 4.62178 2.64583C5.19499 2.06362 7.13159 3.08811 8.94881 4.93472Z" fill="#A0041E"/>
<path d="M7.22921 5.14931C7.15183 5.21294 7.05072 5.24614 6.94378 5.23429C6.60623 5.19713 6.32235 5.07777 6.12364 4.88923C5.91326 4.68963 5.80942 4.42165 5.83781 4.15328C5.88759 3.68214 6.35269 3.24974 7.1456 3.33669C7.45398 3.37029 7.59165 3.2695 7.59631 3.22128C7.60176 3.17346 7.48859 3.045 7.18021 3.01101C6.84267 2.97386 6.55879 2.85449 6.35969 2.66596C6.1493 2.46636 6.04508 2.19838 6.07386 1.93C6.12442 1.45886 6.58912 1.02646 7.38126 1.11381C7.60603 1.13832 7.72464 1.09128 7.77481 1.06085C7.81486 1.03595 7.83081 1.01223 7.83236 0.998399C7.83703 0.950574 7.72542 0.822118 7.41626 0.788126C7.20277 0.764411 7.048 0.569949 7.07172 0.352561C7.09466 0.13557 7.2856 -0.0213445 7.49987 0.00237045C8.29201 0.0889301 8.656 0.611845 8.60583 1.08338C8.55528 1.55531 8.09057 1.98692 7.29766 1.90036C7.07288 1.87546 6.95544 1.92289 6.90489 1.95332C6.86484 1.97783 6.8485 2.00194 6.84695 2.01538C6.84189 2.0636 6.95428 2.19166 7.26343 2.22565C8.05558 2.3126 8.41956 2.83512 8.3694 3.30666C8.31923 3.77779 7.85453 4.2102 7.062 4.12285C6.83723 4.09834 6.71901 4.14577 6.66845 4.17581C6.62801 4.2011 6.61245 4.22482 6.6109 4.23826C6.60584 4.28608 6.71823 4.41454 7.027 4.44853C7.2401 4.47225 7.39526 4.6671 7.37154 4.8841C7.36065 4.99239 7.3066 5.08607 7.22921 5.14931Z" fill="#AA8DD8"/>
<path d="M11.9232 8.80457C12.6905 8.58442 13.2197 8.93224 13.3457 9.38875C13.4717 9.84487 13.1987 10.4223 12.4319 10.6417C12.1324 10.7271 12.0426 10.8725 12.0547 10.9188C12.0679 10.9654 12.2199 11.0421 12.5186 10.9563C13.2855 10.7369 13.8147 11.0848 13.9407 11.5409C14.0675 11.9974 13.7937 12.5741 13.0265 12.7938C12.7274 12.8792 12.6372 13.025 12.6504 13.0713C12.6633 13.1175 12.8149 13.1942 13.114 13.1088C13.3201 13.0499 13.5355 13.1721 13.5934 13.382C13.651 13.5922 13.5308 13.8104 13.324 13.8697C12.5575 14.0891 12.0278 13.742 11.9011 13.2851C11.7751 12.829 12.0484 12.2523 12.8161 12.0326C13.1155 11.9468 13.2053 11.8017 13.1921 11.7551C13.1797 11.7089 13.028 11.6318 12.7294 11.7172C11.9617 11.9369 11.4328 11.5899 11.3065 11.1326C11.1801 10.6765 11.4535 10.0998 12.2207 9.87965C12.5194 9.79467 12.6092 9.64843 12.5968 9.60258C12.5835 9.55594 12.4323 9.47926 12.1332 9.56464C11.9263 9.62392 11.7121 9.50139 11.6537 9.29152C11.5958 9.08204 11.7163 8.86386 11.9232 8.80457Z" fill="#77B255"/>
<path d="M8.94462 7.73858C8.83029 7.73858 8.71752 7.6876 8.64052 7.59036C8.50636 7.41962 8.53397 7.17101 8.70119 7.03464C8.78596 6.96548 10.8081 5.35128 13.666 5.76668C13.8787 5.79751 14.0265 5.99751 13.9961 6.21371C13.9658 6.42952 13.7706 6.58129 13.5559 6.54888C11.0309 6.18446 9.20556 7.6374 9.18767 7.65202C9.11534 7.71052 9.02979 7.73858 8.94462 7.73858Z" fill="#AA8DD8"/>
<path d="M2.23747 6.09432C2.20053 6.09432 2.16281 6.08879 2.12548 6.07772C1.91976 6.01488 1.8031 5.79472 1.86493 5.58564C2.30553 4.09436 2.7049 1.71456 2.21414 1.09402C2.15931 1.02367 2.07648 0.954499 1.88671 0.969123C1.52194 0.997581 1.55655 1.77978 1.55694 1.78768C1.57327 2.00547 1.41228 2.19519 1.1984 2.21139C0.981013 2.22483 0.797464 2.06436 0.78152 1.84658C0.741465 1.30153 0.908293 0.251745 1.82838 0.180996C2.23903 0.149376 2.58007 0.294432 2.82079 0.598774C3.74281 1.76516 2.80679 5.14651 2.61002 5.8129C2.55946 5.98405 2.40469 6.09432 2.23747 6.09432Z" fill="#77B255"/>
<path d="M9.91632 4.1181C10.2385 4.1181 10.4996 3.85266 10.4996 3.52523C10.4996 3.19779 10.2385 2.93235 9.91632 2.93235C9.59417 2.93235 9.33301 3.19779 9.33301 3.52523C9.33301 3.85266 9.59417 4.1181 9.91632 4.1181Z" fill="#5C913B"/>
<path d="M0.777753 7.67536C1.20729 7.67536 1.55551 7.32144 1.55551 6.88486C1.55551 6.44828 1.20729 6.09436 0.777753 6.09436C0.348212 6.09436 0 6.44828 0 6.88486C0 7.32144 0.348212 7.67536 0.777753 7.67536Z" fill="#9266CC"/>
<path d="M12.6385 8.07062C12.9606 8.07062 13.2218 7.80519 13.2218 7.47775C13.2218 7.15031 12.9606 6.88488 12.6385 6.88488C12.3163 6.88488 12.0552 7.15031 12.0552 7.47775C12.0552 7.80519 12.3163 8.07062 12.6385 8.07062Z" fill="#5C913B"/>
<path d="M9.13849 12.8136C9.46065 12.8136 9.7218 12.5482 9.7218 12.2207C9.7218 11.8933 9.46065 11.6279 9.13849 11.6279C8.81633 11.6279 8.55518 11.8933 8.55518 12.2207C8.55518 12.5482 8.81633 12.8136 9.13849 12.8136Z" fill="#5C913B"/>
<path d="M10.8886 2.14186C11.3181 2.14186 11.6663 1.78794 11.6663 1.35136C11.6663 0.91478 11.3181 0.560862 10.8886 0.560862C10.4591 0.560862 10.1108 0.91478 10.1108 1.35136C10.1108 1.78794 10.4591 2.14186 10.8886 2.14186Z" fill="#FFCC4D"/>
<path d="M12.6385 3.72287C12.9606 3.72287 13.2218 3.45743 13.2218 3.13C13.2218 2.80256 12.9606 2.53712 12.6385 2.53712C12.3163 2.53712 12.0552 2.80256 12.0552 3.13C12.0552 3.45743 12.3163 3.72287 12.6385 3.72287Z" fill="#FFCC4D"/>
<path d="M11.4717 5.30384C11.7939 5.30384 12.0551 5.03841 12.0551 4.71097C12.0551 4.38354 11.7939 4.1181 11.4717 4.1181C11.1496 4.1181 10.8884 4.38354 10.8884 4.71097C10.8884 5.03841 11.1496 5.30384 11.4717 5.30384Z" fill="#FFCC4D"/>
<path d="M2.91657 9.6516C3.23872 9.6516 3.49988 9.38616 3.49988 9.05872C3.49988 8.73129 3.23872 8.46585 2.91657 8.46585C2.59441 8.46585 2.33325 8.73129 2.33325 9.05872C2.33325 9.38616 2.59441 9.6516 2.91657 9.6516Z" fill="#FFCC4D"/>
</svg>
