<svg width="48" height="48" viewBox="0 0 48 48" fill="none" xmlns="http://www.w3.org/2000/svg">
<path d="M48 24.0008C48 36.1223 39.0148 46.1434 27.3423 47.7696C26.2509 47.921 25.1343 48 24.0008 48C22.6925 48 21.4077 47.8957 20.1565 47.6939C8.72789 45.8542 0 35.9458 0 24.0008C0 10.7459 10.7459 0 23.9992 0C37.2524 0 48 10.7459 48 24.0008Z" fill="#D8BFD8"/>
<path d="M25.764 37V25.141H29.743L30.34 20.518H25.764V17.5669C25.764 16.2289 26.1341 15.317 28.055 15.317L30.501 15.316V11.181C30.078 11.126 28.626 11 26.936 11C23.407 11 20.991 13.1541 20.991 17.1091V20.518H17V25.141H20.991V37H25.764Z" fill="#1E1E1E"/>
</svg>
