<svg width="48" height="48" viewBox="0 0 48 48" fill="none" xmlns="http://www.w3.org/2000/svg">
<rect width="48" height="48" rx="24" fill="#D8BFD8"/>
<g clip-path="url(#clip0_427_657)">
<path d="M12.8096 29.5387L17.1115 26.3237C16.8656 25.5936 16.7326 24.8125 16.7326 24C16.7326 23.1875 16.8656 22.4064 17.1115 21.6763L12.8096 18.4613C11.9706 20.1284 11.5 22.0079 11.5 24C11.5 25.9921 11.9706 27.8716 12.8096 29.5387Z" fill="#1E1E1E"/>
<path d="M17.1115 21.6763C18.1041 18.7301 20.936 16.6136 24.2907 16.6136C26.093 16.6136 27.7209 17.2386 29 18.2614L32.7209 14.625C30.4535 12.6932 27.5465 11.5 24.2907 11.5C19.2361 11.5 14.8901 14.3276 12.8096 18.4613L17.1115 21.6763Z" fill="#1E1E1E"/>
<path d="M24.2907 36.5C19.2347 36.5 14.8877 33.6708 12.8079 29.5352L17.1081 26.3134C18.0975 29.2649 20.9321 31.3864 24.2907 31.3864C25.9342 31.3864 27.3903 31.0081 28.5435 30.2969L32.6276 33.3869C30.3919 35.4183 27.4105 36.5 24.2907 36.5Z" fill="#1E1E1E"/>
<path d="M24.2907 21.7273H36.2093C36.3837 22.4659 36.5 23.2614 36.5 24C36.5 28.0741 34.9748 31.254 32.6276 33.3869L28.5435 30.2969C29.8789 29.4733 30.808 28.2032 31.1512 26.5568H24.2907V21.7273Z" fill="#1E1E1E"/>
</g>
<defs>
<clipPath id="clip0_427_657">
<rect width="25" height="25" fill="white" transform="translate(11.5 11.5)"/>
</clipPath>
</defs>
</svg>
