<svg width="132" height="37" viewBox="0 0 132 37" fill="none" xmlns="http://www.w3.org/2000/svg">
<path d="M0.161133 27.0879C0.170898 26.9414 0.209961 26.8096 0.27832 26.6924C1.04004 26.4873 1.78223 26.3506 2.50488 26.2822C2.9834 26.2432 3.29102 26.1357 3.42773 25.96C3.52539 25.833 3.58398 25.3643 3.60352 24.5537L3.70605 20.6865L3.69141 18.0645L3.70605 14.6367V13.7285C3.71582 11.668 3.70605 10.3838 3.67676 9.87598C3.66699 9.77832 3.62793 9.6416 3.55957 9.46582C3.30566 9.34863 3.09082 9.27051 2.91504 9.23145C2.74902 9.19238 1.9873 9.05078 0.629883 8.80664C0.620117 8.69922 0.615234 8.62109 0.615234 8.57227C0.615234 8.51367 0.620117 8.43555 0.629883 8.33789C0.81543 8.33789 1.11816 8.34766 1.53809 8.36719L3.76465 8.44043L5.05371 8.46973L5.43457 8.45508C5.4834 8.45508 5.625 8.46484 5.85938 8.48438C6.43555 8.48438 6.76758 8.47949 6.85547 8.46973L8.02734 8.38184C8.81836 8.38184 9.375 8.39648 9.69727 8.42578C9.6875 8.60156 9.65332 8.79199 9.59473 8.99707C9.4873 9.0166 8.97949 9.0459 8.07129 9.08496C7.16309 9.11426 6.64062 9.16797 6.50391 9.24609C6.2793 9.37305 6.16699 9.76367 6.16699 10.418C6.16699 10.5742 6.15723 10.8916 6.1377 11.3701V12.249L6.15234 14.959V15.8818L6.18164 20.7305L6.1377 24.8613L6.15234 25.7695C6.15234 26.0625 6.20117 26.2432 6.29883 26.3115C6.54297 26.3213 7.26074 26.3311 8.45215 26.3408H9.44824L11.9824 26.2529C12.6465 26.2334 13.1201 26.1699 13.4033 26.0625C13.6865 25.9453 14.1602 25.6133 14.8242 25.0664C15.2246 24.7148 15.5371 24.3535 15.7617 23.9824C15.8105 23.9043 15.8936 23.7871 16.0107 23.6309C16.1963 23.377 16.4453 22.8691 16.7578 22.1074H17.2412C17.1826 22.459 17.1191 22.791 17.0508 23.1035C16.7676 24.4805 16.5723 25.6279 16.4648 26.5459C16.4453 26.7412 16.4258 26.9219 16.4062 27.0879L10.9277 26.9268C6.2207 26.9268 3.42773 26.9707 2.54883 27.0586C2.27539 27.0781 1.9873 27.0879 1.68457 27.0879H0.161133ZM19.2773 8.99707C19.2773 8.6748 19.3994 8.39648 19.6436 8.16211C19.8975 7.92773 20.2002 7.81055 20.5518 7.81055C20.9131 7.81055 21.2305 7.94238 21.5039 8.20605C21.7773 8.46973 21.9141 8.75293 21.9141 9.05566C21.9141 9.3584 21.7773 9.64648 21.5039 9.91992C21.2305 10.1836 20.9131 10.3154 20.5518 10.3154C20.1904 10.3154 19.8877 10.1934 19.6436 9.94922C19.3994 9.70508 19.2773 9.3877 19.2773 8.99707ZM18.0469 16.585L18.0615 16.1602C18.6963 15.9746 19.0381 15.8672 19.0869 15.8379C19.4385 15.6816 19.8047 15.4424 20.1855 15.1201C20.5762 14.7979 20.9033 14.4365 21.167 14.0361C21.2842 14.0166 21.377 14.0068 21.4453 14.0068L21.6211 14.0215C21.6602 14.4902 21.6797 14.832 21.6797 15.0469C21.6797 15.0957 21.6699 15.3154 21.6504 15.7061V16.4824L21.665 20.7012L21.6211 25.1689C21.6113 25.5303 21.6699 25.7842 21.7969 25.9307C21.9238 26.0674 22.2998 26.2236 22.9248 26.3994C23.3154 26.5068 23.6084 26.5996 23.8037 26.6777C23.833 26.7461 23.8477 26.8047 23.8477 26.8535C23.8477 26.9121 23.8232 26.9854 23.7744 27.0732C23.3936 27.0635 22.9053 27.0391 22.3096 27C21.499 26.9316 20.9619 26.8975 20.6982 26.8975C20.5713 26.8975 19.79 26.9219 18.3545 26.9707C18.0615 26.9805 17.7783 27.0049 17.5049 27.0439C17.4561 27.0439 17.3779 27.0293 17.2705 27C17.2217 26.9316 17.1973 26.873 17.1973 26.8242C17.1973 26.6875 17.29 26.5801 17.4756 26.502C17.5146 26.4824 18.0127 26.3701 18.9697 26.165C19.2822 26.1064 19.4873 26.0088 19.585 25.8721C19.751 25.667 19.834 25.3398 19.834 24.8906C19.8535 24.1387 19.8633 22.0781 19.8633 18.709C19.8633 18.0352 19.834 17.6152 19.7754 17.4492C19.7266 17.332 19.5947 17.2002 19.3799 17.0537C19.1748 16.8975 18.7305 16.7412 18.0469 16.585ZM29.4727 15.5889C31.9043 15.6475 33.1982 15.6768 33.3545 15.6768C33.374 15.8916 33.3838 16.0527 33.3838 16.1602C33.3838 16.2871 33.3691 16.4775 33.3398 16.7314C33.0957 16.7705 32.8467 16.79 32.5928 16.79H32.0361C30.8252 16.79 29.9854 16.834 29.5166 16.9219C29.4971 17.1465 29.4873 17.3174 29.4873 17.4346C29.4873 17.4834 29.4922 17.5566 29.502 17.6543C29.5508 19.1875 29.5752 20.1152 29.5752 20.4375L29.5459 24.2021C29.5459 24.7588 29.6387 25.2227 29.8242 25.5938C29.9316 25.8086 30.1318 25.9795 30.4248 26.1064C30.6104 26.1943 31.0596 26.2822 31.7725 26.3701C32.3096 26.4482 32.6709 26.502 32.8564 26.5312C32.8564 26.7363 32.8418 26.8926 32.8125 27L32.6074 27.0146C32.1387 26.9854 31.5283 26.9609 30.7764 26.9414L29.6924 26.8975L26.001 27.0146H25.5176L25.5029 26.5605C25.6494 26.5312 25.7568 26.5068 25.8252 26.4873C26.665 26.3311 27.207 26.1553 27.4512 25.96C27.5488 25.8818 27.6172 25.7402 27.6562 25.5352C27.6758 25.418 27.6855 24.8711 27.6855 23.8945C27.6855 21.1113 27.6611 18.8896 27.6123 17.2295C27.3584 17.1514 26.9678 17.1025 26.4404 17.083C26.2451 17.083 25.9375 17.0635 25.5176 17.0244L25.4883 16.8633C25.4883 16.7461 25.5371 16.6484 25.6348 16.5703C25.6738 16.5312 26.084 16.3262 26.8652 15.9551C27.168 15.8184 27.3828 15.6475 27.5098 15.4424C27.5781 15.335 27.6172 15.1104 27.627 14.7686C27.6367 14.6123 27.666 14.3438 27.7148 13.9629C27.832 12.957 27.9248 12.3369 27.9932 12.1025C28.1689 11.4482 28.4619 10.7988 28.8721 10.1543C29.292 9.5 29.7949 8.92871 30.3809 8.44043C30.8105 8.08887 31.2939 7.8252 31.8311 7.64941C32.3779 7.47363 32.998 7.38574 33.6914 7.38574C34.6191 7.38574 35.2979 7.53711 35.7275 7.83984C36.0205 8.04492 36.167 8.30859 36.167 8.63086C36.167 8.9043 36.0645 9.13867 35.8594 9.33398C35.6543 9.5293 35.4004 9.62695 35.0977 9.62695C34.7266 9.62695 34.3262 9.53418 33.8965 9.34863C33.0859 9.02637 32.627 8.85059 32.5195 8.82129C32.334 8.77246 32.1436 8.74805 31.9482 8.74805C31.4111 8.74805 30.918 8.91895 30.4688 9.26074C30.0293 9.60254 29.751 10.0225 29.6338 10.5205C29.5166 11.0186 29.458 12.1367 29.458 13.875C29.458 14.5 29.4629 15.0713 29.4727 15.5889ZM45.3809 19.2656L39.5068 19.3096H38.3936C37.9443 19.3096 37.4854 19.3291 37.0166 19.3682C36.9287 19.6611 36.8848 19.8613 36.8848 19.9688L36.8994 20.1152V20.2617L36.8848 20.9795C36.8848 21.5752 37.0703 22.3076 37.4414 23.1768C37.8223 24.0361 38.3594 24.6953 39.0527 25.1543C39.7559 25.6035 40.6299 25.8428 41.6748 25.8721C42.2314 25.8428 42.6758 25.7744 43.0078 25.667C43.3398 25.5596 43.8086 25.3105 44.4141 24.9199L45.4688 24.0557L45.5566 24.6416C45.5566 24.71 45.5518 24.7832 45.542 24.8613C45.1025 25.418 44.5459 25.9062 43.8721 26.3262C43.1982 26.7461 42.5146 27.0537 41.8213 27.249C41.4893 27.3369 40.9424 27.3809 40.1807 27.3809C39.4873 27.3809 38.8037 27.2393 38.1299 26.9561C37.1338 26.5264 36.3477 25.8379 35.7715 24.8906C35.2051 23.9336 34.9219 22.7764 34.9219 21.4189C34.9219 20.9893 35 20.4375 35.1562 19.7637C35.3223 19.0898 35.6152 18.3721 36.0352 17.6104C36.3184 17.0928 36.665 16.668 37.0752 16.3359C37.6611 15.8672 38.1738 15.54 38.6133 15.3545C39.248 15.0908 39.9854 14.959 40.8252 14.959C41.7334 14.959 42.4756 15.125 43.0518 15.457C43.833 15.8965 44.4141 16.4629 44.7949 17.1562C45.1855 17.8496 45.3809 18.4844 45.3809 19.0605V19.2656ZM37.207 18.7383H37.8955C38.3936 18.7383 39.8779 18.6602 42.3486 18.5039C42.7393 18.4844 42.9785 18.4453 43.0664 18.3867C43.2422 18.2012 43.3301 18.0352 43.3301 17.8887C43.3301 17.5859 43.2324 17.2441 43.0371 16.8633C42.8418 16.4727 42.5391 16.1748 42.1289 15.9697C41.7285 15.7549 41.2598 15.6475 40.7227 15.6475C39.5898 15.6475 38.6816 16.0723 37.998 16.9219C37.4707 17.5664 37.207 18.1719 37.207 18.7383Z" fill="#50C878"/>
<circle cx="62" cy="22" r="6" fill="#50C878"/>
<path d="M57.5417 9H59.5208V28H57.5417V9Z" fill="#FFBF00"/>
<path d="M52 14.1458H65.4583V16.125H52V14.1458Z" fill="#FFBF00"/>
<path d="M70.9932 32.332C71.1787 32.2051 71.3447 32.1416 71.4912 32.1416C71.9404 32.1416 72.4531 32.4004 73.0293 32.918C73.127 33.0059 73.2002 33.0693 73.249 33.1084L73.3223 33.1816C73.5566 33.377 73.8008 33.4746 74.0547 33.4746C74.4258 33.4746 74.7969 33.3477 75.168 33.0938C75.5391 32.8398 75.8369 32.4883 76.0615 32.0391C76.3643 31.4141 76.584 30.7109 76.7207 29.9297C76.8672 29.1484 76.9404 28.2012 76.9404 27.0879L76.9258 24.8027L76.9551 23.2354C76.9551 22.1709 76.916 20.5303 76.8379 18.3135L76.75 12.835L76.7646 10.0078C76.7744 9.75391 76.7305 9.53418 76.6328 9.34863C76.5742 9.25098 76.4668 9.16309 76.3105 9.08496C76.1641 9.00684 75.9492 8.96289 75.666 8.95312L74.582 8.87988C74.2402 8.87988 74.0059 8.8457 73.8789 8.77734C73.8398 8.63086 73.8203 8.51855 73.8203 8.44043L73.835 8.26465C74.0498 8.26465 74.3135 8.27441 74.626 8.29395C75.2314 8.32324 75.8223 8.33789 76.3984 8.33789C76.6719 8.33789 77.0332 8.33301 77.4824 8.32324C77.8242 8.30371 78.0635 8.29395 78.2002 8.29395H80.3535C80.6562 8.29395 80.9834 8.30859 81.335 8.33789C81.335 8.5625 81.3252 8.73828 81.3057 8.86523C80.4658 8.9043 79.9336 8.96289 79.709 9.04102C79.4844 9.11914 79.3184 9.22656 79.2109 9.36328C79.1426 9.45117 79.1084 9.62207 79.1084 9.87598L79.0498 11.3994L79.0645 11.7656C79.084 11.9414 79.0938 12.2783 79.0938 12.7764V13.3623C79.0938 13.7041 79.0986 14.0068 79.1084 14.2705C79.1279 14.6611 79.1377 14.8955 79.1377 14.9736C79.1377 15.0615 79.1279 15.291 79.1084 15.6621C79.0986 15.7695 79.0938 15.8623 79.0938 15.9404L79.2695 20.0127L79.2402 22.6348V24.334C79.2402 25.3105 79.0547 26.6729 78.6836 28.4209C78.4102 29.6904 77.917 30.8428 77.2041 31.8779C76.4912 32.9229 75.7881 33.6357 75.0947 34.0166C74.4014 34.3975 73.4785 34.5879 72.3262 34.5879C71.7109 34.5879 71.2178 34.4414 70.8467 34.1484C70.5928 33.9434 70.4658 33.6699 70.4658 33.3281C70.4658 32.918 70.6416 32.5859 70.9932 32.332ZM93.6836 19.2656L87.8096 19.3096H86.6963C86.2471 19.3096 85.7881 19.3291 85.3193 19.3682C85.2314 19.6611 85.1875 19.8613 85.1875 19.9688L85.2021 20.1152V20.2617L85.1875 20.9795C85.1875 21.5752 85.373 22.3076 85.7441 23.1768C86.125 24.0361 86.6621 24.6953 87.3555 25.1543C88.0586 25.6035 88.9326 25.8428 89.9775 25.8721C90.5342 25.8428 90.9785 25.7744 91.3105 25.667C91.6426 25.5596 92.1113 25.3105 92.7168 24.9199L93.7715 24.0557L93.8594 24.6416C93.8594 24.71 93.8545 24.7832 93.8447 24.8613C93.4053 25.418 92.8486 25.9062 92.1748 26.3262C91.501 26.7461 90.8174 27.0537 90.124 27.249C89.792 27.3369 89.2451 27.3809 88.4834 27.3809C87.79 27.3809 87.1064 27.2393 86.4326 26.9561C85.4365 26.5264 84.6504 25.8379 84.0742 24.8906C83.5078 23.9336 83.2246 22.7764 83.2246 21.4189C83.2246 20.9893 83.3027 20.4375 83.459 19.7637C83.625 19.0898 83.918 18.3721 84.3379 17.6104C84.6211 17.0928 84.9678 16.668 85.3779 16.3359C85.9639 15.8672 86.4766 15.54 86.916 15.3545C87.5508 15.0908 88.2881 14.959 89.1279 14.959C90.0361 14.959 90.7783 15.125 91.3545 15.457C92.1357 15.8965 92.7168 16.4629 93.0977 17.1562C93.4883 17.8496 93.6836 18.4844 93.6836 19.0605V19.2656ZM85.5098 18.7383H86.1982C86.6963 18.7383 88.1807 18.6602 90.6514 18.5039C91.042 18.4844 91.2812 18.4453 91.3691 18.3867C91.5449 18.2012 91.6328 18.0352 91.6328 17.8887C91.6328 17.5859 91.5352 17.2441 91.3398 16.8633C91.1445 16.4727 90.8418 16.1748 90.4316 15.9697C90.0312 15.7549 89.5625 15.6475 89.0254 15.6475C87.8926 15.6475 86.9844 16.0723 86.3008 16.9219C85.7734 17.5664 85.5098 18.1719 85.5098 18.7383ZM96.7158 23.2793C97.0771 24.207 97.3506 24.8076 97.5361 25.0811C97.9072 25.6377 98.3516 26.0723 98.8691 26.3848C99.3867 26.6875 99.9482 26.8389 100.554 26.8389C101.11 26.8389 101.662 26.5996 102.209 26.1211C102.6 25.7598 102.795 25.3398 102.795 24.8613C102.795 24.2266 102.565 23.6406 102.106 23.1035C101.647 22.5762 100.773 22.0732 99.4844 21.5947C98.2051 21.1064 97.3457 20.5889 96.9062 20.042C96.4668 19.4951 96.2471 18.8701 96.2471 18.167C96.2471 17.5029 96.4277 16.917 96.7891 16.4092C97.1504 15.9014 97.6484 15.5205 98.2832 15.2666C98.918 15.0029 99.5039 14.8711 100.041 14.8711C100.734 14.8711 101.354 14.9248 101.901 15.0322C102.458 15.1396 102.937 15.3057 103.337 15.5303C103.415 16.0283 103.479 16.7607 103.527 17.7275L103.557 18.1963C103.43 18.2061 103.322 18.2109 103.234 18.2109H103.029C102.736 17.4004 102.287 16.7607 101.682 16.292C101.086 15.8135 100.495 15.5742 99.9092 15.5742C99.3232 15.5742 98.8496 15.7549 98.4883 16.1162C98.127 16.4678 97.9463 16.9316 97.9463 17.5078C97.9463 17.9473 98.0928 18.3379 98.3857 18.6797C98.6787 19.0215 99.3623 19.4121 100.437 19.8516C101.521 20.291 102.307 20.7012 102.795 21.082C103.293 21.4531 103.659 21.9072 103.894 22.4443C104.128 22.9814 104.245 23.4941 104.245 23.9824C104.245 24.6562 104.021 25.2861 103.571 25.8721C103.132 26.458 102.575 26.8682 101.901 27.1025C101.237 27.3467 100.642 27.4688 100.114 27.4688C98.874 27.4688 97.7314 27.2393 96.6865 26.7803C96.5889 26.7021 96.5352 26.5557 96.5254 26.3408C96.5254 26.2529 96.5156 26.1113 96.4961 25.916C96.3398 24.5977 96.2617 23.8164 96.2617 23.5723C96.2617 23.4551 96.2861 23.377 96.335 23.3379C96.3838 23.2988 96.5107 23.2793 96.7158 23.2793ZM106.032 15.501H107.131L107.614 15.5303L107.995 15.501C109.001 15.501 109.626 15.5107 109.87 15.5303L109.885 15.8086C109.885 17.1855 109.865 18.5186 109.826 19.8076C109.797 20.5693 109.782 21.0039 109.782 21.1113C109.782 22.8301 109.836 23.9043 109.943 24.334C110.061 24.7637 110.324 25.1104 110.734 25.374C111.154 25.6279 111.657 25.7549 112.243 25.7549C112.956 25.7549 113.635 25.6084 114.279 25.3154C114.934 25.0127 115.49 24.6465 115.949 24.2168C115.998 23.8457 116.022 23.4355 116.022 22.9863C116.022 21.5312 116.037 20.5498 116.066 20.042C116.076 19.7393 116.081 19.4756 116.081 19.251C116.081 17.6689 116.003 16.7754 115.847 16.5703C115.69 16.3652 115.095 16.209 114.06 16.1016C113.718 16.0625 113.469 16.0283 113.312 15.999C113.234 15.8721 113.195 15.7744 113.195 15.7061L113.239 15.5449C113.493 15.5156 113.742 15.501 113.986 15.501L116.315 15.5303C117.146 15.5107 117.585 15.501 117.634 15.501C117.741 15.501 117.844 15.5059 117.941 15.5156L117.971 16.585C117.902 18.0693 117.863 19.9053 117.854 22.0928L117.824 23.2793L117.883 25.2715C117.971 25.4277 118.049 25.5205 118.117 25.5498C118.234 25.5986 118.474 25.623 118.835 25.623H118.967C119.094 25.623 119.455 25.6523 120.051 25.7109C120.061 25.8379 120.065 25.9307 120.065 25.9893V26.1504C118.757 26.4336 117.697 26.7168 116.887 27C116.564 27.1074 116.291 27.1855 116.066 27.2344C116.018 26.8926 115.993 26.6826 115.993 26.6045V25.418C115.993 25.3691 115.988 25.2373 115.979 25.0225C115.852 25.1104 115.705 25.2178 115.539 25.3447C114.768 25.9404 113.952 26.4434 113.093 26.8535C112.517 27.1367 111.96 27.2783 111.423 27.2783C110.397 27.2783 109.562 26.8975 108.918 26.1357C108.264 25.374 107.937 24.0752 107.937 22.2393C107.937 22.1416 107.941 21.9658 107.951 21.7119C107.99 21.2432 108.01 20.916 108.01 20.7305C108.01 20.6621 108.005 20.4473 107.995 20.0859C107.985 19.9297 107.98 19.793 107.98 19.6758C107.98 19.5879 107.985 19.3926 107.995 19.0898C108.005 18.7773 108.01 18.5576 108.01 18.4307C108.01 18.2646 108.005 18.1182 107.995 17.9912L107.966 17.2148L107.98 16.8047C107.98 16.6484 107.902 16.5068 107.746 16.3799C107.131 16.2139 106.726 16.1211 106.53 16.1016C106.345 16.0723 106.179 16.0283 106.032 15.9697V15.501ZM122.38 23.2793C122.741 24.207 123.015 24.8076 123.2 25.0811C123.571 25.6377 124.016 26.0723 124.533 26.3848C125.051 26.6875 125.612 26.8389 126.218 26.8389C126.774 26.8389 127.326 26.5996 127.873 26.1211C128.264 25.7598 128.459 25.3398 128.459 24.8613C128.459 24.2266 128.229 23.6406 127.771 23.1035C127.312 22.5762 126.438 22.0732 125.148 21.5947C123.869 21.1064 123.01 20.5889 122.57 20.042C122.131 19.4951 121.911 18.8701 121.911 18.167C121.911 17.5029 122.092 16.917 122.453 16.4092C122.814 15.9014 123.312 15.5205 123.947 15.2666C124.582 15.0029 125.168 14.8711 125.705 14.8711C126.398 14.8711 127.019 14.9248 127.565 15.0322C128.122 15.1396 128.601 15.3057 129.001 15.5303C129.079 16.0283 129.143 16.7607 129.191 17.7275L129.221 18.1963C129.094 18.2061 128.986 18.2109 128.898 18.2109H128.693C128.4 17.4004 127.951 16.7607 127.346 16.292C126.75 15.8135 126.159 15.5742 125.573 15.5742C124.987 15.5742 124.514 15.7549 124.152 16.1162C123.791 16.4678 123.61 16.9316 123.61 17.5078C123.61 17.9473 123.757 18.3379 124.05 18.6797C124.343 19.0215 125.026 19.4121 126.101 19.8516C127.185 20.291 127.971 20.7012 128.459 21.082C128.957 21.4531 129.323 21.9072 129.558 22.4443C129.792 22.9814 129.909 23.4941 129.909 23.9824C129.909 24.6562 129.685 25.2861 129.235 25.8721C128.796 26.458 128.239 26.8682 127.565 27.1025C126.901 27.3467 126.306 27.4688 125.778 27.4688C124.538 27.4688 123.396 27.2393 122.351 26.7803C122.253 26.7021 122.199 26.5557 122.189 26.3408C122.189 26.2529 122.18 26.1113 122.16 25.916C122.004 24.5977 121.926 23.8164 121.926 23.5723C121.926 23.4551 121.95 23.377 121.999 23.3379C122.048 23.2988 122.175 23.2793 122.38 23.2793Z" fill="#50C878"/>
</svg>
