<svg width="21" height="20" viewBox="0 0 21 20" fill="none" xmlns="http://www.w3.org/2000/svg">
<path d="M17.1667 12.2222C15.5 12.2222 13.4511 16.1633 13.2778 17.7777C13.0439 19.9527 14.3889 19.9999 14.3889 19.9999H20.5V14.4444C20.5 14.4444 18.59 12.2222 17.1667 12.2222Z" fill="#50A5E6"/>
<path d="M16.6064 16.2827C17.5035 14.7287 17.878 13.2653 17.4427 13.014C17.0075 12.7627 15.9274 13.8187 15.0302 15.3727C14.1331 16.9266 13.7586 18.39 14.1938 18.6413C14.6291 18.8926 15.7092 17.8366 16.6064 16.2827Z" fill="#1C6399"/>
<path d="M11.659 0C12.3151 0 12.8467 0.531667 12.8467 1.18778C12.8467 1.62611 13.2179 7.20111 13.2179 7.20111L10.4712 10V1.18778C10.4712 0.531667 11.0029 0 11.659 0Z" fill="#9B6A49"/>
<path d="M10.9862 2.40163C10.9862 1.79108 11.4595 1.29663 12.0434 1.29663C12.6273 1.29663 13.1006 1.79163 13.1006 2.40163C13.1006 2.40163 13.3978 5.70274 13.7628 7.60719C14.2506 8.64385 14.5234 10.2083 14.4634 11.0783C14.4934 11.2994 17.5884 13.8594 17.5884 13.8594C17.4323 14.8666 16.3334 17.2789 14.9445 18.3922L12.9884 16.7677C11.3856 16.5433 10.5117 14.9172 10.5117 14.3989C10.5117 12.7411 10.9862 2.40163 10.9862 2.40163Z" fill="#AF7E57"/>
<path d="M3.83333 12.2222C5.5 12.2222 7.54889 16.1633 7.72222 17.7777C7.95611 19.9527 6.61111 19.9999 6.61111 19.9999H0.5V14.4444C0.5 14.4444 2.41 12.2222 3.83333 12.2222Z" fill="#50A5E6"/>
<path d="M6.80553 18.6403C7.24077 18.389 6.86632 16.9256 5.96917 15.3716C5.07201 13.8177 3.99188 12.7617 3.55664 13.013C3.12139 13.2643 3.49584 14.7277 4.393 16.2816C5.29015 17.8356 6.37028 18.8915 6.80553 18.6403Z" fill="#1C6399"/>
<path d="M9.42275 0.00610274C8.71941 -0.0644528 8.12664 0.486103 8.12664 1.17444C8.12664 1.60777 8.02441 6.90721 8.02441 6.90721L10.4416 9.99999L10.4761 1.24166C10.4761 0.627214 10.0344 0.0672138 9.42275 0.00610274Z" fill="#9B6A49"/>
<path d="M10.0138 2.40163C10.0138 1.79108 9.54051 1.29663 8.95662 1.29663C8.37273 1.29663 7.8994 1.79163 7.8994 2.40163C7.8994 2.40163 7.60218 5.70274 7.23718 7.60719C6.7494 8.64385 6.47662 10.2083 6.53662 11.0783C6.50662 11.2994 3.41162 13.8594 3.41162 13.8594C3.56773 14.8666 4.66662 17.2789 6.05551 18.3922L8.01162 16.7677C9.6144 16.5433 10.4883 14.9172 10.4883 14.3989C10.4883 12.7411 10.0138 2.40163 10.0138 2.40163Z" fill="#AF7E57"/>
<path d="M10.5002 14.3462C10.2702 14.3462 10.0835 14.1595 10.0835 13.9295V1.55119C10.0835 1.32119 10.2702 1.13452 10.5002 1.13452C10.7302 1.13452 10.9168 1.32119 10.9168 1.55119V13.9295C10.9168 14.1595 10.7302 14.3462 10.5002 14.3462Z" fill="#9B6A49"/>
</svg>
