<svg width="14" height="13" viewBox="0 0 14 13" fill="currentColor" xmlns="http://www.w3.org/2000/svg">
<g clip-path="url(#clip0_482_597)">
<path fill-rule="evenodd" clip-rule="evenodd" d="M6.15394 0.283973C7.21032 -0.449159 8.63082 0.325278 8.60671 1.60101V10.463C8.57858 11.7335 7.10897 12.4836 6.06566 11.7595C6.03734 11.7399 6.0107 11.7179 5.986 11.6939L2.82323 8.61457H1.60595C0.724691 8.61457 0 7.88495 0 7.00565V5.03793C0 4.15864 0.724691 3.42901 1.60595 3.42901H2.82795L6.08014 0.344C6.10319 0.322147 6.12785 0.302085 6.15394 0.283973ZM7.35675 1.57957C7.3628 1.32457 7.10381 1.17887 6.89701 1.29224L3.50744 4.50756C3.3913 4.61773 3.23733 4.67914 3.07726 4.67914H1.60595C1.41869 4.67914 1.25014 4.84548 1.25014 5.03793V7.00565C1.25014 7.1981 1.41869 7.36443 1.60595 7.36443H3.07726C3.24014 7.36443 3.39659 7.42802 3.5133 7.54164L6.81126 10.7526C6.90938 10.8049 7.03101 10.8057 7.14876 10.7456C7.278 10.6797 7.35189 10.5663 7.35657 10.4405V1.59442L7.35675 1.57957ZM13.7803 4.01979C14.0732 4.31271 14.0732 4.78764 13.7803 5.08057L12.8394 6.02149L13.7803 6.96242C14.0732 7.25534 14.0732 7.73026 13.7803 8.0232C13.4874 8.31612 13.0124 8.31612 12.7195 8.0232L11.7786 7.08226L10.8377 8.0232C10.5447 8.31612 10.0698 8.31612 9.77689 8.0232C9.48396 7.73026 9.48396 7.25534 9.77689 6.96242L10.7178 6.02149L9.77689 5.08057C9.48396 4.78764 9.48396 4.31271 9.77689 4.01979C10.0698 3.72686 10.5447 3.72686 10.8377 4.01979L11.7786 4.96071L12.7195 4.01979C13.0124 3.72686 13.4874 3.72686 13.7803 4.01979Z" fill="currentColor"/>
</g>
<defs>
<clipPath id="clip0_482_597">
<rect width="14" height="12.25" fill="currentColor"/>
</clipPath>
</defs>
</svg>
