<svg width="48" height="42" viewBox="0 0 48 42" fill="none" xmlns="http://www.w3.org/2000/svg">
<g clip-path="url(#clip0_372_608)">
<path d="M10.5506 13.8993H5.5061C3.67439 13.8993 2.14309 15.4352 2.14309 17.2725V24.0189C2.14309 25.8562 3.67439 27.3922 5.5061 27.3922H10.5506L22.0185 38.5576C24.1886 40.0636 27.3069 38.4777 27.3656 35.8251V5.46616C27.4286 2.81195 24.4973 1.22356 22.3211 2.73384L10.5506 13.8993Z" fill="#A8C3BC"/>
<path fill-rule="evenodd" clip-rule="evenodd" d="M21.0992 0.973622C24.7211 -1.53997 29.5914 1.11524 29.5087 5.48917V35.8731C29.4123 40.2292 24.3736 42.801 20.7966 40.3184C20.6994 40.2512 20.6081 40.1758 20.5234 40.0935L9.67964 29.5357H5.5061C2.48465 29.5357 0 27.0341 0 24.0194V17.2729C0 14.2582 2.48465 11.7566 5.5061 11.7566H9.69582L20.8462 1.17943C20.9252 1.1045 21.0098 1.03572 21.0992 0.973622ZM25.2231 5.41568C25.2439 4.54137 24.3559 4.04184 23.6469 4.43055L12.0255 15.4545C11.6273 15.8322 11.0994 16.0428 10.5506 16.0428H5.5061C4.8641 16.0428 4.28618 16.6131 4.28618 17.2729V24.0194C4.28618 24.6792 4.8641 25.2495 5.5061 25.2495H10.5506C11.1091 25.2495 11.6455 25.4675 12.0456 25.8571L23.3529 36.8661C23.6893 37.0455 24.1063 37.0482 24.51 36.8421C24.9532 36.6162 25.2065 36.2273 25.2225 35.796V5.46657L25.2231 5.41568ZM47.2467 13.7821C48.2511 14.7864 48.2511 16.4148 47.2467 17.4191L44.0208 20.6451L47.2467 23.8712C48.2511 24.8755 48.2511 26.5038 47.2467 27.5081C46.2424 28.5124 44.614 28.5124 43.6097 27.5081L40.3837 24.282L37.1578 27.5081C36.1534 28.5124 34.525 28.5124 33.5207 27.5081C32.5164 26.5038 32.5164 24.8755 33.5207 23.8712L36.7466 20.6451L33.5207 17.4191C32.5164 16.4148 32.5164 14.7864 33.5207 13.7821C34.525 12.7778 36.1534 12.7778 37.1578 13.7821L40.3837 17.0082L43.6097 13.7821C44.614 12.7778 46.2424 12.7778 47.2467 13.7821Z" fill="#1E1E1E"/>
</g>
<defs>
<clipPath id="clip0_372_608">
<rect width="48" height="42" fill="white"/>
</clipPath>
</defs>
</svg>
