<svg width="14" height="13" viewBox="0 0 14 13" fill="currentColor" xmlns="http://www.w3.org/2000/svg">
<g clip-path="url(#clip0_482_604)">
<path fill-rule="evenodd" clip-rule="evenodd" d="M6.15596 0.284028C7.21255 -0.449246 8.63333 0.325342 8.60921 1.60132V10.4663C8.58107 11.7371 7.11117 12.4874 6.06766 11.7632C6.03933 11.7435 6.01269 11.7216 5.988 11.6975L2.82406 8.61707H1.60627C0.724837 8.61707 0 7.88731 0 7.00783V5.03944C0 4.15996 0.724837 3.4302 1.60627 3.4302H2.82879L6.08217 0.344053C6.10521 0.322201 6.12988 0.30214 6.15596 0.284028ZM7.35929 1.57989C7.36535 1.3246 7.10605 1.17874 6.89902 1.29226L3.50826 4.50872C3.39213 4.61888 3.23815 4.68029 3.07808 4.68029H1.60627C1.41882 4.68029 1.2501 4.8468 1.2501 5.03944V7.00783C1.2501 7.20047 1.41882 7.36697 1.60627 7.36697H3.07808C3.24096 7.36697 3.39742 7.43056 3.51412 7.54418L6.81323 10.7563C6.91147 10.8088 7.03323 10.8095 7.15109 10.7493C7.28045 10.6833 7.35443 10.5698 7.35911 10.4438V1.59473L7.35929 1.57989ZM11.8803 1.94733C12.2347 1.73278 12.6958 1.84611 12.9104 2.20046C13.6075 3.35165 13.9836 4.66841 14 6.01408V6.03232C13.9836 7.37799 13.6075 8.69475 12.9104 9.84598C12.6958 10.2003 12.2347 10.3136 11.8803 10.0991C11.5259 9.88448 11.4126 9.42335 11.6272 9.06892C12.184 8.14941 12.4852 7.09796 12.4999 6.0232C12.4852 4.94842 12.184 3.89699 11.6272 2.97743C11.4126 2.62308 11.5259 2.16189 11.8803 1.94733ZM9.83305 3.97354C10.1523 3.70951 10.625 3.75424 10.8891 4.07344C11.3417 4.6206 11.5774 5.3145 11.5524 6.02333C11.5774 6.73214 11.3417 7.42605 10.8891 7.97321C10.625 8.29242 10.1523 8.33714 9.83305 8.07311C9.51385 7.80908 9.46912 7.33628 9.73314 7.01709C9.9552 6.74864 10.0691 6.40699 10.0525 6.059C10.0514 6.03523 10.0514 6.01142 10.0525 5.98766C10.0691 5.63967 9.9552 5.29801 9.73314 5.02957C9.46912 4.71037 9.51385 4.23757 9.83305 3.97354Z" fill="currentColor"/>
</g>
<defs>
<clipPath id="clip0_482_604">
<rect width="14" height="12.25" fill="currentColor"/>
</clipPath>
</defs>
</svg>
